<svg width="40" height="41" viewBox="0 0 40 41" fill="none" xmlns="http://www.w3.org/2000/svg">
<circle cx="20" cy="20.5" r="20" fill="white"/>
<path d="M18.3027 26.5233C18.7193 26.4352 21.2578 26.4352 21.6743 26.5233C22.0305 26.6056 22.4156 26.7978 22.4156 27.2174C22.3949 27.617 22.1605 27.9711 21.8367 28.1961C21.4168 28.5234 20.924 28.7307 20.4088 28.8054C20.1239 28.8423 19.844 28.8432 19.569 28.8054C19.053 28.7307 18.5602 28.5234 18.1412 28.1952C17.8165 27.9711 17.5821 27.617 17.5614 27.2174C17.5614 26.7978 17.9465 26.6056 18.3027 26.5233ZM20.0377 12.1667C21.7712 12.1667 23.5419 12.9893 24.5937 14.354C25.2762 15.2327 25.5892 16.1106 25.5892 17.4753V17.8304C25.5892 18.877 25.8659 19.4939 26.4746 20.2047C26.9359 20.7285 27.0834 21.4007 27.0834 22.1301C27.0834 22.8586 26.844 23.5502 26.3645 24.1117C25.7367 24.7848 24.8513 25.2145 23.9477 25.2892C22.6383 25.4009 21.3281 25.4949 20.0004 25.4949C18.672 25.4949 17.3626 25.4386 16.0531 25.2892C15.1487 25.2145 14.2634 24.7848 13.6364 24.1117C13.1569 23.5502 12.9167 22.8586 12.9167 22.1301C12.9167 21.4007 13.0649 20.7285 13.5254 20.2047C14.1532 19.4939 14.4116 18.877 14.4116 17.8304V17.4753C14.4116 16.0737 14.7611 15.1572 15.4808 14.26C16.5509 12.9515 18.2661 12.1667 19.9632 12.1667H20.0377Z" fill="#2D416F"/>
<circle cx="25" cy="14.5" r="2.5" fill="#E05453" stroke="white"/>
</svg>
