<svg width="20" height="20" viewBox="0 0 20 20" fill="none" xmlns="http://www.w3.org/2000/svg">
<path fill-rule="evenodd" clip-rule="evenodd" d="M12.89 3.8335H7.11071C5.09671 3.8335 3.83405 5.2595 3.83405 7.2775V12.7228C3.83405 14.7408 5.09005 16.1668 7.11071 16.1668H12.8894C14.91 16.1668 16.1674 14.7408 16.1674 12.7228V7.2775C16.1674 5.2595 14.91 3.8335 12.89 3.8335Z" stroke="#4BAA79" stroke-linecap="round" stroke-linejoin="round"/>
<path d="M7.01421 10.7983C6.57355 10.7983 6.21555 10.4403 6.21555 10.0003C6.21555 9.56033 6.57355 9.20166 7.01421 9.20166C7.45488 9.20166 7.81288 9.56033 7.81288 10.0003C7.81288 10.4403 7.45488 10.7983 7.01421 10.7983Z" fill="#4BAA79"/>
<path d="M10.0005 10.7983C9.55987 10.7983 9.20187 10.4403 9.20187 10.0003C9.20187 9.56033 9.55987 9.20166 10.0005 9.20166C10.4412 9.20166 10.7992 9.56033 10.7992 10.0003C10.7992 10.4403 10.4412 10.7983 10.0005 10.7983Z" fill="#4BAA79"/>
<path d="M12.9862 10.7983C12.5456 10.7983 12.1876 10.4403 12.1876 10.0003C12.1876 9.56033 12.5456 9.20166 12.9862 9.20166C13.4269 9.20166 13.7849 9.56033 13.7849 10.0003C13.7849 10.4403 13.4269 10.7983 12.9862 10.7983Z" fill="#4BAA79"/>
</svg>
